Coordinates
version=1
nRows=17
nColumns=24
inDegrees=yes

Units are S.I. units (second, meters, Newtons, ...)
Angles are in degrees.

endheader
time	pelvis_tilt	pelvis_list	pelvis_rotation	pelvis_tx	pelvis_ty	pelvis_tz	hip_flexion_r	hip_adduction_r	hip_rotation_r	knee_angle_r	ankle_angle_r	subtalar_angle_r	mtp_angle_r	hip_flexion_l	hip_adduction_l	hip_rotation_l	knee_angle_l	ankle_angle_l	subtalar_angle_l	mtp_angle_l	lumbar_extension	lumbar_bending	lumbar_rotation
      3.47500000	     -3.08173864	      9.23886746	     -0.84926106	     -0.62198769	     -0.01651994	     -0.15286938	     30.67520123	    -10.98222531	      0.17157343	    -70.72668997	    -10.95372079	      6.72438854	     29.74878065	      8.80635783	     17.93990219	      0.75889495	    -13.76733941	      5.37737569	     -0.48361934	    -11.25925514	      3.33738514	    -10.88956981	     -3.03500222
      3.48000000	     -3.03209956	      9.03172508	     -0.91160559	     -0.61572577	     -0.01608897	     -0.15289269	     31.45968740	    -10.63904074	      0.12700605	    -69.97956246	    -10.54220608	      6.76480052	     29.67634652	      8.01000395	     17.74963372	      1.01955391	    -13.37788659	      5.68354218	     -0.51796259	    -11.32990308	      3.27482316	    -10.66815497	     -3.13477053
      3.48500000	     -2.79922442	      8.80823977	     -0.94425728	     -0.60947778	     -0.01546341	     -0.15299813	     31.95704724	    -10.32336759	      0.01477788	    -69.11408721	    -10.01910748	      6.93705917	     29.41262707	      6.98434899	     17.55750914	      1.37064149	    -12.94754966	      5.90887218	     -0.61024157	    -11.55246602	      2.98619888	    -10.43453638	     -3.39358889
      3.49000000	     -2.64112908	      8.61839401	     -0.95790430	     -0.60323124	     -0.01504548	     -0.15308661	     32.52189258	    -10.05885079	     -0.14428861	    -68.21430183	     -9.44726185	      7.01929150	     28.96863329	      6.06784318	     17.39302813	      1.70550301	    -12.56879187	      6.20258790	     -0.65502021	    -11.77011320	      2.78497185	    -10.24072072	     -3.56160805
      3.49500000	     -2.53457819	      8.40505669	     -0.96500831	     -0.59700876	     -0.01471495	     -0.15315258	     33.10743660	     -9.76453678	     -0.31297051	    -67.22664365	     -8.93223699	      7.11816818	     28.50145893	      5.24515435	     17.18945812	      1.92829608	    -12.24547377	      6.53716214	     -0.58639729	    -11.90495708	      2.63257948	    -10.02463231	     -3.74429305
      3.50000000	     -2.46729948	      8.17470118	     -0.96126358	     -0.59081909	     -0.01445707	     -0.15322873	     33.69581794	     -9.45845587	     -0.49532421	    -66.13852714	     -8.49481326	      7.20938786	     28.13351167	      4.49635997	     16.96190557	      2.08217931	    -11.96357089	      6.86194523	     -0.48155868	    -11.94820132	      2.51102079	     -9.79165907	     -3.95332002
      3.50500000	     -2.35941904	      7.95413792	     -0.94188158	     -0.58463224	     -0.01425202	     -0.15325331	     34.19388055	     -9.18158004	     -0.73623763	    -64.98670829	     -7.95223603	      7.29314029	     27.59352973	      3.71901068	     16.73950176	      2.24926230	    -11.71993770	      7.24866919	     -0.33398523	    -11.99177850	      2.34598143	     -9.58471435	     -4.13237940
      3.51000000	     -2.39551803	      7.73581184	     -0.95491946	     -0.57846041	     -0.01426112	     -0.15328487	     34.84910243	     -8.88194752	     -0.91794395	    -63.75719074	     -7.57258572	      7.38041597	     27.35536921	      3.12730486	     16.52151392	      2.36438543	    -11.49686260	      7.59430353	     -0.28412655	    -11.96665653	      2.33936485	     -9.35755652	     -4.25026713
      3.51500000	     -2.28458483	      7.47931893	     -0.88330094	     -0.57236918	     -0.01409596	     -0.15329268	     35.24300523	     -8.60564477	     -1.23930341	    -62.42264302	     -7.05533258	      7.54174861	     26.83928295	      2.39110780	     16.25398975	      2.51420669	    -11.32248356	      7.95282154	     -0.10693387	    -11.98029747	      2.12483068	     -9.13208641	     -4.55152181
      3.52000000	     -2.23999447	      7.23932633	     -0.84225364	     -0.56625764	     -0.01408077	     -0.15324988	     35.69237926	     -8.32202818	     -1.51712125	    -61.03494523	     -6.53283933	      7.75167916	     26.29566338	      1.75330705	     16.00456987	      2.64161082	    -11.18732729	      8.33267681	      0.00153704	    -12.02590444	      2.00154275	     -8.91419903	     -4.75315022
      3.52500000	     -2.32984364	      7.04914516	     -0.87488259	     -0.56016217	     -0.01433076	     -0.15310004	     36.31291155	     -8.03759789	     -1.70770516	    -59.59753481	     -6.13307439	      7.88987357	     26.10329116	      1.28065023	     15.80683486	      2.74874386	    -11.05113418	      8.67697479	     -0.01335720	    -12.00542760	      2.03958479	     -8.73859128	     -4.78310763
      3.53000000	     -2.22729402	      6.78833496	     -0.75820149	     -0.55413821	     -0.01431509	     -0.15309816	     36.58827665	     -7.80342329	     -2.09386149	    -58.05126935	     -5.53423050	      8.26860837	     25.58174828	      0.60992607	     15.53861466	      2.93961269	    -10.98023775	      9.06877493	      0.08972318	    -12.10528193	      1.81452625	     -8.51230220	     -5.10564682
      3.53500000	     -2.21154226	      6.57732375	     -0.78166079	     -0.54807985	     -0.01450551	     -0.15286818	     36.99224791	     -7.50847207	     -2.32693465	    -56.52677152	     -4.87353678	      8.70980311	     24.66069582	      0.04102529	     15.31775691	      3.07243864	    -10.90085176	      9.51176494	      0.10395511	    -12.55462814	      1.71164911	     -8.33034919	     -5.17692501
      3.54000000	     -2.28886032	      6.36653869	     -0.70464435	     -0.54211451	     -0.01479221	     -0.15278353	     37.43420611	     -7.29049930	     -2.63223102	    -54.85478971	     -4.41299024	      9.11182125	     24.58045228	     -0.38555428	     15.10129369	      3.21508883	    -10.88218675	      9.86035530	      0.10890127	    -12.61476792	      1.68109756	     -8.15269488	     -5.38668461
      3.54500000	     -2.39197825	      6.16122926	     -0.70543019	     -0.53616036	     -0.01514024	     -0.15255222	     37.88390256	     -7.00936076	     -2.84376088	    -53.12120133	     -4.02102242	      9.50205319	     24.48526673	     -0.78005284	     14.88315688	      3.31743231	    -10.84561484	     10.16548192	      0.06191939	    -12.64909865	      1.68428870	     -7.97489518	     -5.44794032
      3.55000000	     -2.36157758	      5.95938947	     -0.63030322	     -0.53023873	     -0.01538766	     -0.15243092	     38.11136836	     -6.81679039	     -3.16464422	    -51.33435295	     -3.42531334	     10.09851926	     24.35173162	     -1.32065172	     14.67305982	      3.46088199	    -10.83162959	     10.51661548	      0.07216365	    -12.80550648	      1.51688848	     -7.81861551	     -5.68480514
      3.55500000	     -2.39933963	      5.77293663	     -0.59379893	     -0.52432840	     -0.01572675	     -0.15225113	     38.38707074	     -6.59522637	     -3.40437788	    -49.50093468	     -2.89584627	     10.69572766	     24.18267341	     -1.77451178	     14.47546259	      3.55700998	    -10.82619491	     10.85871498	      0.08406531	    -13.00545920	      1.42972236	     -7.66730126	     -5.81995644
